<svg height="511pt" viewBox="0 -101 511.99922 511" width="511pt" xmlns="http://www.w3.org/2000/svg"><path d="m416.992188 260.027344h-322.027344v-59.320313c0-4.679687 3.796875-8.472656 8.476562-8.472656h305.078125c4.679688 0 8.472657 3.792969 8.472657 8.472656zm0 0" fill="#c38c66"/><path d="m171.234375 226.128906v-33.898437h-67.792969c-4.679687 0-8.472656 3.796875-8.472656 8.476562v59.320313h322.023438v-16.949219h-228.808594c-9.359375 0-16.949219-7.585937-16.949219-16.949219zm0 0" fill="#b57f5f"/><path d="m398.082031 100.558594c-3.515625-29.875-28.832031-52.390625-58.914062-52.390625h-166.027344c-30.082031 0-55.402344 22.515625-58.914063 52.390625l-10.785156 91.671875h305.425782zm0 0" fill="#5d5360"/><path d="m472.472656 276.671875-55.480468-16.644531h-322.027344l-55.476563 16.644531c-14.503906 4.351563-27.496093 12.476563-37.707031 23.4375-3.820312 4.105469-1.109375 10.765625 4.496094 10.765625h499.402344c5.605468 0 8.316406-6.660156 4.496093-10.765625-10.207031-10.960937-23.199219-19.085937-37.703125-23.4375zm0 0" fill="#5d5360"/><g fill="#4b3f4e"><path d="m128.863281 226.128906c0 4.679688-3.792969 8.476563-8.472656 8.476563-4.683594 0-8.476563-3.796875-8.476563-8.476563 0-4.679687 3.792969-8.472656 8.476563-8.472656 4.679687 0 8.472656 3.792969 8.472656 8.472656zm0 0"/><path d="m162.761719 226.128906c0 4.679688-3.792969 8.476563-8.476563 8.476563-4.679687 0-8.472656-3.796875-8.472656-8.476563 0-4.679687 3.792969-8.472656 8.472656-8.472656 4.683594 0 8.476563 3.792969 8.476563 8.472656zm0 0"/><path d="m114.226562 100.558594-10.785156 91.671875h67.792969v-144.027344c-29.230469.933594-53.570313 23.117187-57.007813 52.355469zm0 0"/><path d="m503.777344 293.925781h-298.644532c-18.722656 0-33.898437-15.175781-33.898437-33.898437h-76.269531l-55.476563 16.644531c-14.507812 4.351563-27.5 12.476563-37.707031 23.4375-3.820312 4.105469-1.109375 10.765625 4.496094 10.765625h499.402344c5.503906 0 8.363281-6.574219 4.628906-10.621094-2.089844-2.265625-4.207032-4.316406-6.53125-6.328125zm0 0"/></g><path d="m289.875 268.503906h-67.792969c-14.019531 0-25.421875-11.40625-25.421875-25.425781v-33.898437c0-14.019532 11.402344-25.421876 25.421875-25.421876h67.792969c14.019531 0 25.425781 11.402344 25.425781 25.421876v33.898437c0 14.019531-11.40625 25.425781-25.425781 25.425781zm-67.792969-67.796875c-4.675781 0-8.472656 3.804688-8.472656 8.472657v33.898437c0 4.671875 3.796875 8.476563 8.472656 8.476563h67.792969c4.679688 0 8.476562-3.804688 8.476562-8.476563v-33.898437c0-4.671876-3.800781-8.472657-8.476562-8.472657zm0 0" fill="#ffd064"/><path d="m188.183594 234.605469h59.320312c4.683594 0 8.476563-3.792969 8.476563-8.472657 0-4.683593-3.792969-8.476562-8.476563-8.476562h-59.320312c-4.679688 0-8.472656 3.792969-8.472656 8.476562 0 4.679688 3.792968 8.472657 8.472656 8.472657zm0 0" fill="#ffe07d"/><path d="m213.609375 243.078125v-8.472656h-16.949219v8.472656c0 2.988281.609375 5.8125 1.5625 8.476563h23.859375c-4.675781 0-8.472656-3.804688-8.472656-8.476563zm0 0" fill="#ffc250"/><path d="m483.039062 5.023438c-.523437-3.828126-5.03125-5.808594-8.203124-3.601563-29.046876 20.199219-53.960938 49.707031-70.089844 86.429687-16.128906 36.722657-20.996094 75.035157-16.21875 110.089844.523437 3.832032 5.027344 5.8125 8.203125 3.605469 29.042969-20.203125 53.960937-49.710937 70.089843-86.433594 16.125-36.722656 20.996094-75.035156 16.21875-110.089843zm0 0" fill="#ffc269"/><path d="m474.835938 1.421875c-29.046876 20.199219-53.964844 49.710937-70.089844 86.429687-16.128906 36.722657-20.996094 75.035157-16.21875 110.089844.261718 1.917969 1.515625 3.371094 3.105468 4.066406l88.296876-201.050781c-1.585938-.695312-3.507813-.640625-5.09375.464844zm0 0" fill="#ffa95f"/><path d="m446.746094 76.515625c-4.289063-1.882813-9.285156.066406-11.164063 4.351563l-78.683593 179.160156h18.507812l75.691406-172.34375c1.882813-4.285156-.0625-9.285156-4.351562-11.167969zm0 0" fill="#b57f5f"/><path d="m364.339844 243.078125-7.441406 16.949219h18.507812l7.445312-16.949219zm0 0" fill="#966a5b"/></svg>